# xmcd
#
# Track frame offsets: 
#        150
#        22752
#        36615
#        45897
#        69384
#        84103
#        97149
#        111785
#        136019
#        157450
#        175599
#        193320
#        215388
#        240334
#        256044
#
# Disc length: 3639 seconds
#
# Revision: 0
# Processed by: cddbd v1.5.2PL0 Copyright (c) Steve Scherf et al.
# Submitted via: ExactAudioCopyFreeDBPlugin 1.0
#
DISCID=be0e350f
DTITLE=Fettes Brot - Fettes
DYEAR=2010
DGENRE=Hip-Hop
TTITLE0=Jein
TTITLE1=Schieb Es Auf Die Brote
TTITLE2=Was In Der Zeitung Steht
TTITLE3=Ich Bin Müde
TTITLE4=Erdbeben
TTITLE5=Hamburg Calling
TTITLE6=Der Beste Rapper Ist Offensichtlich Ich
TTITLE7=Amsterdam
TTITLE8=Da Draussen
TTITLE9=Ich Lass Dich Nicht Los
TTITLE10=An Tagen Wie Diesen
TTITLE11=Automatikpistole
TTITLE12=Falsche Entscheidung
TTITLE13=Lieber Verbrennen Als Erfrieren
TTITLE14=Schwule Mädchen
EXTD=
EXTT0=
EXTT1=
EXTT2=
EXTT3=
EXTT4=
EXTT5=
EXTT6=
EXTT7=
EXTT8=
EXTT9=
EXTT10=
EXTT11=
EXTT12=
EXTT13=
EXTT14=
PLAYORDER=
